<svg xmlns="http://www.w3.org/2000/svg" style="display: none;">
  <symbol id="twitter" viewBox="0 0 24 24">
    <path d="M23.954 4.569c-.885.392-1.83.656-2.825.775 1.014-.611 1.794-1.574 2.163-2.723-.949.564-2.005.974-3.127 1.195-.897-.959-2.178-1.555-3.594-1.555-2.717 0-4.92 2.203-4.92 4.917 0 .39.045.765.127 1.124-4.087-.205-7.72-2.165-10.148-5.144-.423.722-.666 1.561-.666 2.475 0 1.708.87 3.213 2.188 4.096-.807-.026-1.566-.247-2.228-.616v.062c0 2.385 1.693 4.374 3.946 4.827-.413.111-.849.171-1.296.171-.317 0-.626-.03-.927-.086.627 1.956 2.444 3.379 4.6 3.419-1.68 1.319-3.809 2.105-6.102 2.105-.396 0-.787-.023-1.175-.067 2.179 1.397 4.768 2.212 7.557 2.212 9.054 0 14-7.496 14-13.986 0-.21 0-.423-.015-.634.961-.695 1.8-1.562 2.46-2.549z" />
  </symbol>
  <symbol id="github" viewBox="0 0 24 24">
    <path d="M12 0C5.37 0 0 5.37 0 12c0 5.3 3.438 9.8 8.207 11.387.6.11.793-.26.793-.577v-2.17c-3.338.726-4.033-1.61-4.033-1.61-.546-1.387-1.333-1.757-1.333-1.757-1.09-.746.083-.73.083-.73 1.205.084 1.838 1.236 1.838 1.236 1.07 1.835 2.807 1.305 3.493.997.108-.775.418-1.305.762-1.605-2.665-.305-5.467-1.333-5.467-5.93 0-1.31.468-2.382 1.236-3.222-.123-.303-.536-1.523.117-3.176 0 0 1.008-.322 3.3 1.23a11.5 11.5 0 0 1 3-.405c1.02.005 2.045.138 3 .405 2.29-1.552 3.297-1.23 3.297-1.23.655 1.653.242 2.873.12 3.176.77.84 1.236 1.912 1.236 3.222 0 4.61-2.807 5.625-5.478 5.922.43.372.823 1.102.823 2.222v3.293c0 .32.192.694.8.577C20.565 21.797 24 17.297 24 12c0-6.63-5.37-12-12-12z" />
  </symbol>
  <symbol id="linkedin" viewBox="0 0 24 24">
    <path d="M22.23 0H1.77C.79 0 0 .77 0 1.72v20.56C0 23.23.79 24 1.77 24h20.46c.98 0 1.77-.77 1.77-1.72V1.72C24 .77 23.21 0 22.23 0zM7.12 20.45H3.56V9h3.56v11.45zM5.34 7.57c-1.14 0-2.06-.93-2.06-2.07 0-1.14.92-2.07 2.06-2.07 1.14 0 2.06.93 2.06 2.07 0 1.14-.92 2.07-2.06 2.07zm15.11 12.88h-3.56v-5.6c0-1.34-.03-3.07-1.87-3.07-1.87 0-2.16 1.46-2.16 2.97v5.7h-3.56V9h3.42v1.56h.05c.48-.91 1.66-1.87 3.42-1.87 3.66 0 4.34 2.41 4.34 5.54v6.22z" />
  </symbol>
</svg>